<svg width="435" height="435" viewBox="0 0 435 435" fill="none" xmlns="http://www.w3.org/2000/svg">
<g clip-path="url(#clip0)">
<rect x="66" y="50" width="291" height="313" fill="white"/>
<path d="M27.336 14.372L55.513 374.846C55.936 380.259 59.6 384.875 64.776 386.516L213.044 433.524C215.666 434.355 218.481 434.355 221.103 433.524L369.371 386.516C374.547 384.875 378.211 380.259 378.634 374.846L406.811 14.372C407.417 6.622 401.292 0 393.519 0H40.629C32.856 0 26.731 6.622 27.336 14.372ZM334.553 126.215H150.918L156.46 177.32H330.559L319.17 323.013L217.074 355.382L114.978 323.013L109.028 246.897H162.616V284.233L218.506 299.233L274.062 284.233L278.372 224.73H107.295L95.937 79.419H338.21L334.553 126.215Z" fill="#FC490B"/>
</g>
<defs>
<clipPath id="clip0">
<rect width="434.147" height="434.147" fill="white"/>
</clipPath>
</defs>
</svg>
